<svg width="128" height="128" viewBox="0 0 128 128" fill="none" xmlns="http://www.w3.org/2000/svg">
  <defs>
    <linearGradient id="ticketFill" x1="15" y1="21" x2="55" y2="57" gradientUnits="userSpaceOnUse">
      <stop stop-color="#FFE05A"/>
      <stop offset="1" stop-color="#F4BE00"/>
    </linearGradient>
    <linearGradient id="signFill" x1="36" y1="16" x2="90" y2="102" gradientUnits="userSpaceOnUse">
      <stop stop-color="#FFE36B"/>
      <stop offset="1" stop-color="#F3BD00"/>
    </linearGradient>
  </defs>

  <path
    d="M17 28L56 18C59 17 61 19 61 22V55C61 58 59 60 56 61L18 72C14 73 12 71 12 67V60C16 58 16 52 12 50V39C16 37 16 31 17 28Z"
    fill="url(#ticketFill)"
    stroke="#F7C600"
    stroke-width="4"
    stroke-linejoin="round"
  />
  <path d="M24 38L45 33" stroke="#161616" stroke-width="3.5" stroke-linecap="round"/>
  <path d="M24 45L41 41" stroke="#161616" stroke-width="3.5" stroke-linecap="round"/>
  <path d="M22 55L40 51" stroke="#161616" stroke-width="3.5" stroke-linecap="round"/>
  <path d="M46 28L48 40" stroke="#161616" stroke-width="4" stroke-linecap="round" stroke-dasharray="7 7"/>

  <path
    d="M72 12L116 94C118 98 115 103 110 103H22C17 103 14 98 16 94L60 12C62 8 69 8 72 12Z"
    fill="url(#signFill)"
    stroke="#FFD229"
    stroke-width="8"
    stroke-linejoin="round"
  />
  <path
    d="M63 25C73 25 84 28 92 33C83 34 74 39 69 47C65 54 66 61 70 69C75 79 75 88 70 97H40C50 87 52 75 46 65C41 56 40 48 44 40C48 31 56 25 63 25Z"
    fill="#111111"
  />
  <path
    d="M66 32C61 37 58 44 59 52C60 60 65 69 68 76C71 83 71 90 68 97"
    stroke="white"
    stroke-width="5"
    stroke-linecap="round"
    stroke-dasharray="10 10"
  />
</svg>
